<?xml version="1.0" encoding="utf-8"?>
<!-- Generator: Adobe Illustrator 22.1.0, SVG Export Plug-In . SVG Version: 6.00 Build 0)  -->
<svg version="1.1" id="b9950e65-c983-427f-969f-411e60d4718f"
	 xmlns="http://www.w3.org/2000/svg" xmlns:xlink="http://www.w3.org/1999/xlink" x="0px" y="0px" viewBox="0 0 733.5 729"
	 style="enable-background:new 0 0 733.5 729;" xml:space="preserve">
<style type="text/css">
	.st0{fill:url(#SVGID_1_);}
	.st1{fill:#6C63FF;}
	.st2{opacity:0.2;enable-background:new    ;}
	.st3{fill:url(#SVGID_2_);}
	.st4{fill:#FFCC80;}
	.st5{fill:url(#SVGID_3_);}
	.st6{fill:#FAF8E4;}
	.st7{opacity:0.6;}
	.st8{fill:url(#SVGID_4_);}
	.st9{fill:url(#SVGID_5_);}
	.st10{fill:#FFFFFF;}
	.st11{fill:url(#SVGID_6_);}
	.st12{opacity:0.2;fill:#FFFFFF;enable-background:new    ;}
	.st13{fill:url(#SVGID_7_);}
	.st14{fill:url(#SVGID_8_);}
</style>
<linearGradient id="SVGID_1_" gradientUnits="userSpaceOnUse" x1="214.2592" y1="257.1732" x2="214.2592" y2="419.1677" gradientTransform="matrix(-0.9927 -0.1208 0.1208 -0.9927 564.5012 672.1844)">
	<stop  offset="0" style="stop-color:#808080;stop-opacity:0.25"/>
	<stop  offset="0.54" style="stop-color:#808080;stop-opacity:0.12"/>
	<stop  offset="1" style="stop-color:#808080;stop-opacity:0.1"/>
</linearGradient>
<polygon class="st0" points="252.1,375.1 271.6,214.3 533.3,246.1 513.7,406.9 "/>
<rect x="316" y="181.8" transform="matrix(0.1208 -0.9927 0.9927 0.1208 37.4802 660.4824)" class="st6" width="151.2" height="254.7"/>
<linearGradient id="SVGID_2_" gradientUnits="userSpaceOnUse" x1="104.1514" y1="234.935" x2="104.1514" y2="396.9294" gradientTransform="matrix(-0.9927 -0.1208 0.1208 -0.9927 564.5009 672.1776)">
	<stop  offset="0" style="stop-color:#808080;stop-opacity:0.25"/>
	<stop  offset="0.54" style="stop-color:#808080;stop-opacity:0.12"/>
	<stop  offset="1" style="stop-color:#808080;stop-opacity:0.1"/>
</linearGradient>
<polygon class="st3" points="358.7,410.5 378.2,249.6 639.9,281.5 620.3,442.3 "/>
<rect x="422.6" y="217.1" transform="matrix(0.1208 -0.9927 0.9927 0.1208 96.0773 797.4321)" class="st6" width="151.2" height="254.7"/>
<g class="st7">
	
		<rect x="393.2" y="264.5" transform="matrix(0.1208 -0.9927 0.9927 0.1208 77.5286 648.9865)" class="st1" width="24" height="32.4"/>
	
		<rect x="466.7" y="281.6" transform="matrix(0.1208 -0.9927 0.9927 0.1208 72.4094 769.4236)" class="st1" width="7.8" height="124.4"/>
	
		<rect x="482.5" y="318.5" transform="matrix(0.1208 -0.9927 0.9927 0.1208 65.2465 801.444)" class="st1" width="5.2" height="90.7"/>
</g>
<linearGradient id="SVGID_3_" gradientUnits="userSpaceOnUse" x1="280.3395" y1="134.9768" x2="280.3395" y2="354.5608" gradientTransform="matrix(-0.9927 -0.1208 0.1208 -0.9927 564.493 672.1866)">
	<stop  offset="0" style="stop-color:#808080;stop-opacity:0.25"/>
	<stop  offset="0.54" style="stop-color:#808080;stop-opacity:0.12"/>
	<stop  offset="1" style="stop-color:#808080;stop-opacity:0.1"/>
</linearGradient>
<polygon class="st5" points="125.2,482.7 151.7,264.8 506.4,307.9 479.8,525.9 "/>
<rect x="211.9" y="220.7" transform="matrix(0.1208 -0.9927 0.9927 0.1208 -113.9868 657.8047)" class="st10" width="204.9" height="345.2"/>
<linearGradient id="SVGID_4_" gradientUnits="userSpaceOnUse" x1="131.0834" y1="104.8377" x2="131.0834" y2="324.4217" gradientTransform="matrix(-0.9927 -0.1208 0.1208 -0.9927 564.4945 672.1797)">
	<stop  offset="0" style="stop-color:#808080;stop-opacity:0.25"/>
	<stop  offset="0.54" style="stop-color:#808080;stop-opacity:0.12"/>
	<stop  offset="1" style="stop-color:#808080;stop-opacity:0.1"/>
</linearGradient>
<polygon class="st8" points="269.7,530.7 296.2,312.7 650.9,355.9 624.4,573.9 "/>
<rect x="356.4" y="268.7" transform="matrix(0.1208 -0.9927 0.9927 0.1208 -34.5818 843.4324)" class="st10" width="204.9" height="345.2"/>
<g class="st7">
	
		<rect x="316.4" y="332.9" transform="matrix(0.1208 -0.9927 0.9927 0.1208 -59.7305 642.2045)" class="st1" width="32.5" height="43.9"/>
	
		<rect x="416.1" y="356.1" transform="matrix(0.1208 -0.9927 0.9927 0.1208 -66.7068 805.4455)" class="st1" width="10.5" height="168.6"/>
	
		<rect x="437.6" y="406.1" transform="matrix(0.1208 -0.9927 0.9927 0.1208 -76.3388 848.8981)" class="st1" width="7" height="123"/>
</g>
<g>
	
		<linearGradient id="SVGID_5_" gradientUnits="userSpaceOnUse" x1="973.4623" y1="344.527" x2="973.4623" y2="469.9269" gradientTransform="matrix(-0.65 0.76 -0.76 -0.65 1516.4399 -232.37)">
		<stop  offset="0" style="stop-color:#808080;stop-opacity:0.25"/>
		<stop  offset="0.54" style="stop-color:#808080;stop-opacity:0.12"/>
		<stop  offset="1" style="stop-color:#808080;stop-opacity:0.1"/>
	</linearGradient>
	<polygon class="st9" points="504.4,287.3 498.1,290.4 498.8,289.1 498.2,289.2 499,288.7 583.6,138.2 626.8,175.1 663.9,209.4 
		653.2,214.6 665.2,235.7 	"/>
	<polygon class="st1" points="622.5,179 656.4,210.4 502.8,286.8 584.5,182 	"/>
	<polygon class="st2" points="622.5,179 656.4,210.4 502.8,286.8 584.5,182 	"/>
	<polygon class="st1" points="583,145.3 502.8,286.8 622.5,179 	"/>
	<polygon class="st1" points="657.4,234.7 503,285.8 632.1,189.4 	"/>
</g>
<linearGradient id="SVGID_6_" gradientUnits="userSpaceOnUse" x1="547.5535" y1="-135.2651" x2="547.5535" y2="48.4104" gradientTransform="matrix(0.8447 0.5352 0.5352 -0.8447 -280.5723 4.3285)">
	<stop  offset="0" style="stop-color:#808080;stop-opacity:0.25"/>
	<stop  offset="0.54" style="stop-color:#808080;stop-opacity:0.12"/>
	<stop  offset="1" style="stop-color:#808080;stop-opacity:0.1"/>
</linearGradient>
<polygon class="st11" points="277.3,363.8 287.4,365.3 285.9,363.8 286.7,363.8 285.4,363.4 101.9,189.4 57.4,259.6 20.3,323.8 
	37.4,326.4 29.8,361.2 "/>
<polygon class="st1" points="65,263.3 31.2,322 279.3,362.4 119.5,251.1 "/>
<polygon class="st2" points="65,263.3 31.2,322 279.3,362.4 119.5,251.1 "/>
<polygon class="st1" points="105.8,199 279.3,362.4 65,263.3 "/>
<polygon class="st1" points="40.3,356.4 278.6,361 56.2,282 "/>
</svg>
